<svg width="326" height="62" viewBox="0 0 326 62" fill="none" xmlns="http://www.w3.org/2000/svg">
<g clip-path="url(#clip0_1_297)">
<path d="M13.7837 46.014V2.94427H0V1.16071H33.4321V2.94427H19.6816V46.014H13.7837Z" fill="#20423A"/>
<path d="M38.4022 46.014L56.9572 0L75.5122 46.014H69.3162L63.8443 32.4391H45.7201L40.2577 46.014H38.4022ZM46.4348 30.6556H63.1201L54.7656 9.9417L46.4301 30.6556H46.4348Z" fill="#20423A"/>
<path d="M82.3378 39.2761V1.16071H88.2357V36.8319C88.2357 39.144 88.0653 41.3286 87.7244 43.3858C87.3836 45.4431 86.9245 47.2361 86.347 48.7554C85.7743 50.2747 85.1163 51.6855 84.3732 52.9831C83.6348 54.2807 82.8538 55.3706 82.0349 56.2529C81.216 57.1353 80.4018 57.928 79.583 58.631C78.7641 59.3341 77.9878 59.8909 77.2494 60.3014C76.511 60.7071 75.853 61.0421 75.2756 61.3064C74.7028 61.5706 74.2389 61.7593 73.8839 61.8679L73.3869 62V60.2164C74.7123 59.3813 75.8388 58.4942 76.7666 57.5599C77.6943 56.6257 78.6173 55.3706 79.5356 53.7947C80.4539 52.2187 81.1497 50.2181 81.6231 47.7834C82.0964 45.3487 82.3378 42.5129 82.3378 39.2761Z" fill="#20423A"/>
<path d="M110.203 46.014L128.758 0L147.313 46.014H141.117L135.646 32.4391H117.521L112.059 46.014H110.203ZM118.236 30.6556H134.921L126.567 9.9417L118.231 30.6556H118.236Z" fill="#20423A"/>
<path d="M153.741 46.014V1.16071H159.639V44.2304H177.001V46.014H153.741Z" fill="#20423A"/>
<path d="M182.502 42.513V39.4413C182.634 39.597 182.833 39.7857 183.098 40.0169C183.363 40.2481 183.926 40.6728 184.788 41.2909C185.649 41.909 186.549 42.4469 187.491 42.9093C188.428 43.3717 189.607 43.7964 191.022 44.1833C192.437 44.5702 193.862 44.7589 195.296 44.7589C198.212 44.7589 200.56 44.037 202.339 42.5979C204.119 41.1541 205.004 39.2101 205.004 36.7659C205.004 34.7181 204.313 32.8496 202.931 31.1652C201.549 29.4807 199.159 27.4282 195.76 25.0029C194.435 24.0168 193.436 23.276 192.764 22.7805C192.092 22.2804 191.23 21.6434 190.179 20.8601C189.128 20.0816 188.347 19.4352 187.841 18.9303C187.335 18.4254 186.752 17.8026 186.104 17.0618C185.451 16.3257 184.982 15.6463 184.693 15.0329C184.405 14.4148 184.154 13.7212 183.931 12.9521C183.709 12.183 183.6 11.3903 183.6 10.574C183.6 8.89896 183.979 7.40322 184.745 6.08206C185.512 4.76091 186.53 3.7087 187.808 2.92544C189.091 2.14218 190.492 1.54766 192.016 1.14188C193.54 0.736095 195.14 0.533203 196.82 0.533203C198.321 0.533203 199.817 0.688911 201.312 0.995608C202.803 1.30231 203.925 1.61372 204.673 1.92042L205.8 2.38282V5.25634C205.691 5.16669 205.539 5.05817 205.35 4.92605C205.161 4.79393 204.749 4.56273 204.11 4.23244C203.471 3.90215 202.818 3.60489 202.155 3.34066C201.492 3.07643 200.664 2.84051 199.67 2.6329C198.676 2.42529 197.691 2.31676 196.721 2.31676C194.359 2.31676 192.371 2.88769 190.757 4.02483C189.143 5.16197 188.338 6.71905 188.338 8.68663C188.338 9.4746 188.485 10.2201 188.773 10.9184C189.062 11.6168 189.398 12.2349 189.777 12.7586C190.156 13.2824 190.814 13.9241 191.756 14.679C192.693 15.434 193.493 16.0426 194.151 16.505C194.809 16.9674 195.878 17.7177 197.36 18.7557C198.496 19.5531 199.381 20.176 200.015 20.6195C200.65 21.063 201.464 21.6387 202.467 22.3417C203.471 23.0448 204.233 23.644 204.758 24.1442C205.284 24.6443 205.894 25.2436 206.595 25.9419C207.295 26.6402 207.83 27.2961 208.204 27.9047C208.578 28.5134 208.947 29.1976 209.321 29.9525C209.695 30.7075 209.956 31.4766 210.107 32.2646C210.258 33.0525 210.339 33.8783 210.339 34.7464C210.339 36.464 210.022 38.0116 209.392 39.3847C208.763 40.7624 207.944 41.8854 206.94 42.7536C205.937 43.6218 204.754 44.3484 203.395 44.9335C202.037 45.5186 200.683 45.9291 199.334 46.1697C197.985 46.4104 196.607 46.5331 195.192 46.5331C193.777 46.5331 192.267 46.3962 190.851 46.1178C189.436 45.8442 188.248 45.5092 187.287 45.1128C186.326 44.7165 185.47 44.3201 184.722 43.9238C183.969 43.5274 183.42 43.1877 183.065 42.8999L182.502 42.5035V42.513Z" fill="#20423A"/>
<path d="M215.172 46.014L233.722 0L252.277 46.014H246.081L240.609 32.4391H222.485L217.023 46.014H215.167H215.172ZM223.204 30.6556H239.89L231.535 9.9417L223.2 30.6556H223.204Z" fill="#20423A"/>
<path d="M258.705 46.014V1.16071H284.318V2.94427H264.603V22.2332H281.104V24.0167H264.603V46.014H258.705Z" fill="#20423A"/>
<path d="M288.89 46.014L307.445 0L326 46.014H319.804L314.332 32.4391H296.208L290.746 46.014H288.89ZM296.923 30.6556H313.608L305.253 9.9417L296.918 30.6556H296.923Z" fill="#20423A"/>
</g>
<defs>
<clipPath id="clip0_1_297">
<rect width="326" height="62" fill="white"/>
</clipPath>
</defs>
</svg>
