<svg width="159" height="95" viewBox="0 0 159 95" fill="none" xmlns="http://www.w3.org/2000/svg">
<path d="M50.4698 35.3583L51.0025 23.6167H59.5251V13.076H82.2965L82.0301 43.097L83.3618 12.0085H58.593V22.5493H49.9372L50.4698 35.3583Z" fill="black"/>
<path d="M69.7789 23.8834V6.13765H67.2487L66.7161 4.66995H100.94L100.274 6.40451H97.6105V25.618L98.5427 7.33849H101.073L102.271 3.60254H65.3844L66.4497 7.07164L68.7136 7.20507L69.7789 23.8834Z" fill="black"/>
<path d="M90.5528 25.3511V17.8792H109.063V43.0969L110.128 16.8118H89.4874L90.5528 25.3511Z" fill="black"/>
<path d="M19.8417 86.9944H18.9095L17.3116 84.7262H16.5126V86.9944H15.7136V81.2571H17.5779C17.9774 81.2571 18.3769 81.2571 18.6432 81.5239C18.9095 81.5239 19.1759 81.9242 19.309 82.0576C19.4422 82.1911 19.5754 82.5913 19.5754 82.9916C19.5754 83.3919 19.5754 83.5253 19.4422 83.7922C19.4422 84.059 19.1759 84.1925 19.0427 84.3259C18.7764 84.4593 18.6432 84.5928 18.2437 84.7262L19.9749 86.9944H19.8417ZM16.3794 84.059H17.3116C17.711 84.059 18.1105 84.059 18.2437 83.7922C18.51 83.6588 18.6432 83.3919 18.6432 82.9916C18.6432 82.5913 18.6432 82.4579 18.3769 82.1911C18.1105 82.0576 17.8442 81.9242 17.4447 81.9242H16.3794V84.059Z" fill="black"/>
<path d="M22.3719 86.3273H25.1683V86.9944H21.5729V81.2571H25.0352V82.0576H22.3719V83.7922H24.7688L24.6357 84.4593H22.3719V86.3273Z" fill="black"/>
<path d="M29.696 81.257L31.8266 86.8609H31.0276L30.3618 85.2598H27.9648L27.4322 86.8609H26.6332L28.7638 81.1235H29.696V81.257ZM28.2312 84.7261H30.0955L29.1633 82.0575L28.2312 84.7261Z" fill="black"/>
<path d="M34.3568 86.3273H37.1533V86.9944H33.5578V81.2571H34.3568V86.3273Z" fill="black"/>
<path d="M42.6131 86.3273H45.4095V86.9944H41.8141V81.2571H45.4095V82.0576H42.6131V83.7922H45.01L44.8769 84.4593H42.6131V86.3273Z" fill="black"/>
<path d="M47.8065 86.9944C47.407 86.9944 47.1407 86.7276 46.8744 86.4607L47.2739 85.927C47.5402 86.0605 47.8065 86.1939 48.0728 86.3273C48.3392 86.3273 48.6055 86.3273 48.8718 86.3273C49.2713 86.3273 49.5377 86.3273 49.804 86.0604C50.0703 85.927 50.0703 85.6602 50.0703 85.3933C50.0703 85.1265 50.0703 84.993 50.0703 84.993C50.0703 84.993 49.804 84.7262 49.6708 84.7262C49.5377 84.7262 49.2713 84.4593 48.8718 84.4593H48.7387C48.3392 84.3259 48.0729 84.1925 47.8065 84.059C47.5402 83.9256 47.407 83.7922 47.2739 83.5253C47.2739 83.2585 47.0075 82.9916 47.0075 82.7248C47.0075 82.4579 47.0075 82.0576 47.2739 81.9242C47.5402 81.7908 47.6734 81.5239 47.9397 81.3905C48.206 81.3905 48.6055 81.2571 48.8718 81.2571C49.1382 81.2571 49.5377 81.2571 49.804 81.2571C50.0703 81.2571 50.4698 81.5239 50.7362 81.6574L50.3367 82.1911C50.0703 82.0576 49.804 81.9242 49.5377 81.7908C49.2713 81.7908 49.005 81.7908 48.7387 81.7908C48.4723 81.7908 48.206 81.7908 47.9397 81.9242C47.6734 82.0576 47.6734 82.1911 47.6734 82.5913C47.6734 82.9916 47.6734 82.8582 47.6734 82.9916C47.6734 83.1251 47.8065 83.2585 48.0728 83.2585C48.3392 83.2585 48.4723 83.3919 48.7387 83.5253H48.8718C49.2713 83.6588 49.5377 83.7922 49.804 83.9256C50.0703 83.9256 50.2035 84.1925 50.4698 84.4593C50.603 84.7262 50.7362 84.993 50.7362 85.2599C50.7362 85.5267 50.7362 85.927 50.4698 86.1939C50.3367 86.4607 50.0703 86.5942 49.804 86.7276C49.5377 86.7276 49.1382 86.861 48.7387 86.861C48.3392 86.861 47.9397 86.861 47.6734 86.7276L47.8065 86.9944Z" fill="black"/>
<path d="M57.1281 81.2571V82.0576H55.1306V86.9944H54.4648V82.0576H52.4673V81.2571H57.1281Z" fill="black"/>
<path d="M60.5904 81.257L62.7211 86.8609H61.9221L61.2563 85.2598H58.8593L58.3266 86.8609H57.5276L59.6583 81.1235H60.5904V81.257ZM59.1256 84.7261H60.9899L60.0578 82.0575L59.1256 84.7261Z" fill="black"/>
<path d="M67.7814 81.2571V82.0576H65.7839V86.9944H64.9849V82.0576H63.1206V81.2571H67.7814Z" fill="black"/>
<path d="M70.3116 86.3273H73.108V86.9944H69.5126V81.2571H73.108V82.0576H70.3116V83.7922H72.7085V84.4593H70.3116V86.3273Z" fill="black"/>
<path d="M82.0301 81.9241C82.5628 82.3244 82.8291 83.1249 82.8291 84.0589C82.8291 84.9929 82.8291 85.2598 82.4296 85.66C82.0301 86.0603 81.7638 86.3272 81.3643 86.594C80.9648 86.8609 80.299 86.8609 79.7663 86.8609H78.1683V81.1235H79.8995C80.8317 81.1235 81.6306 81.3904 82.1633 81.7907L82.0301 81.9241ZM80.8317 86.0603C81.2311 86.0603 81.4975 85.6601 81.6306 85.3932C81.7638 85.1263 81.897 84.5926 81.897 84.0589C81.897 83.5252 81.7638 82.7247 81.3643 82.4578C80.9648 82.0575 80.4322 81.9241 79.7663 81.9241H78.8342V86.1938H79.5C80.0327 86.1938 80.4322 86.1938 80.8317 86.0603Z" fill="black"/>
<path d="M85.6256 86.3273H88.2889V86.9944H84.8266V81.2571H88.2889V82.0576H85.6256V83.7922H88.0226L87.8894 84.4593H85.6256V86.3273Z" fill="black"/>
<path d="M94.1482 81.2571H94.9472V81.3905L92.8166 86.9944H91.8844L89.7538 81.3905V81.2571H90.6859L92.4171 86.1939L94.1482 81.2571Z" fill="black"/>
<path d="M97.4774 86.3273H100.274V86.9944H96.6784V81.2571H100.274V82.0576H97.4774V83.7922H99.8744L99.7412 84.4593H97.4774V86.3273Z" fill="black"/>
<path d="M103.07 86.3273H105.867V86.9944H102.271V81.2571H103.07V86.3273Z" fill="black"/>
<path d="M108.131 86.7276C107.731 86.4607 107.465 86.0604 107.198 85.6602C106.932 85.2599 106.932 84.7262 106.932 84.059C106.932 83.3919 106.932 82.8582 107.332 82.4579C107.731 82.0576 107.864 81.6574 108.264 81.5239C108.663 81.3905 109.063 81.2571 109.595 81.2571C110.128 81.2571 110.661 81.2571 111.06 81.6574C111.46 82.0576 111.726 82.3245 111.992 82.7248C112.259 83.1251 112.259 83.6588 112.259 84.3259C112.259 84.993 112.259 85.5267 111.859 85.927C111.46 86.3273 111.327 86.7276 110.927 86.861C110.528 87.1279 110.128 87.1279 109.595 87.1279C109.063 87.1279 108.53 87.1279 108.131 86.7276ZM110.661 86.0604C110.927 85.927 111.193 85.6602 111.327 85.2599C111.327 84.8596 111.593 84.5928 111.593 84.059C111.593 83.5253 111.593 83.2585 111.46 82.8582C111.46 82.4579 111.06 82.1911 110.794 82.0576C110.528 81.9242 110.128 81.7908 109.729 81.7908C109.329 81.7908 108.93 81.7908 108.663 82.0576C108.397 82.3245 108.131 82.4579 107.997 82.8582C107.997 83.2585 107.731 83.5253 107.731 84.059C107.731 84.5928 107.731 84.8596 107.864 85.2599C107.864 85.6602 108.264 85.927 108.53 86.0604C108.796 86.1939 109.196 86.3273 109.595 86.3273C109.995 86.3273 110.394 86.3273 110.661 86.0604Z" fill="black"/>
<path d="M117.319 81.5238C117.585 81.6572 117.852 81.9241 117.985 82.1909C118.118 82.4578 118.251 82.7246 118.251 83.1249C118.251 83.5252 118.251 83.7921 117.985 84.0589C117.719 84.3258 117.585 84.5926 117.319 84.7261C117.053 84.8595 116.653 84.9929 116.121 84.9929H115.055V87.1277H114.256V81.3904H116.121C116.52 81.3904 116.92 81.3904 117.319 81.6572V81.5238ZM117.053 83.9255C117.319 83.6586 117.452 83.3918 117.452 83.1249C117.452 82.8581 117.452 82.4578 117.186 82.3244C116.92 82.1909 116.653 82.0575 116.254 82.0575H115.188V84.3258H116.121C116.653 84.3258 116.92 84.3258 117.186 84.0589L117.053 83.9255Z" fill="black"/>
<path d="M125.842 81.2571V86.9944H125.043V82.5913C125.043 82.8582 124.776 83.1251 124.643 83.3919L123.312 86.0604H122.513L121.181 83.3919C121.181 83.2585 121.048 83.1251 120.915 82.9916C120.915 82.9916 120.915 82.7248 120.781 82.5913V86.9944H119.982V81.2571H120.915L122.246 83.7922C122.646 84.4593 122.779 84.993 122.912 85.2599C122.912 84.993 123.045 84.8596 123.178 84.5928C123.178 84.3259 123.445 84.059 123.578 83.7922L124.91 81.2571H125.842Z" fill="black"/>
<path d="M129.038 86.3273H131.701V86.9944H128.239V81.2571H131.701V82.0576H129.038V83.7922H131.435L131.301 84.4593H129.038V86.3273Z" fill="black"/>
<path d="M138.492 81.2571V86.9944H137.56L135.03 83.3919C135.03 83.2585 135.03 83.1251 135.03 82.9916C135.03 82.8582 135.03 82.8582 134.897 82.7248C134.897 82.7248 134.897 82.5913 134.897 82.4579V86.9944H134.098V81.2571H134.897L137.427 84.993C137.427 84.993 137.427 84.993 137.56 85.2599C137.56 85.2599 137.56 85.5267 137.693 85.5267C137.827 85.5267 137.693 85.6602 137.693 85.7936V81.2571H138.492Z" fill="black"/>
<path d="M144.884 81.2571V82.0576H142.887V86.9944H142.088V82.0576H140.224V81.2571H144.884Z" fill="black"/>
<path d="M11.0528 69.5155V49.5015H4.6608V48.7009H20.108V49.5015H13.7161V69.5155H10.9196H11.0528Z" fill="black"/>
<path d="M22.3719 69.5154L31.0276 48.0337L39.6834 69.5154H36.7538L34.2236 63.2444H25.8342L23.304 69.5154H22.505H22.3719ZM26.1005 62.4438H33.8241L29.9623 52.8371L26.1005 62.4438Z" fill="black"/>
<path d="M42.7462 66.4467V48.7009H45.5427V65.2459C45.5427 66.3133 45.5427 67.3807 45.2764 68.3147C45.1432 69.2487 44.8769 70.0492 44.6105 70.8498C44.3442 71.6504 44.0779 72.1841 43.6784 72.8512C43.2789 73.5183 43.0126 73.9186 42.6131 74.3189C42.2136 74.7192 41.8141 75.1195 41.5477 75.3863C41.1482 75.6532 40.8819 75.92 40.4824 76.1869C40.0829 76.3203 39.8166 76.5872 39.5502 76.7206C39.2839 76.7206 39.0176 76.9874 38.8844 76.9874H38.6181V76.1869C39.2839 75.7866 39.6834 75.3863 40.2161 74.986C40.7487 74.5858 41.0151 73.9186 41.5477 73.2515C41.9472 72.5844 42.3467 71.5169 42.4799 70.4495C42.7462 69.3821 42.8794 68.0478 42.8794 66.4467H42.7462Z" fill="black"/>
<path d="M55.6633 69.5154L64.3191 48.0337L72.9749 69.5154H70.0452L67.5151 63.2444H59.1256L56.5955 69.5154H55.7965H55.6633ZM59.3919 62.4438H67.1156L63.2538 52.8371L59.3919 62.4438Z" fill="black"/>
<path d="M75.7714 69.5155V48.7009H78.5678V68.715H86.5578V69.5155H75.7714Z" fill="black"/>
<path d="M89.0879 67.9143V66.4466C89.0879 66.4466 89.2211 66.58 89.3543 66.7135C89.3543 66.7135 89.7538 66.9803 90.1533 67.2472C90.5528 67.514 90.9523 67.7809 91.3518 68.0477C91.7512 68.3146 92.2839 68.448 92.9497 68.5814C93.6156 68.7149 94.2814 68.8483 94.9472 68.8483C96.2789 68.8483 97.3442 68.448 98.2764 67.7809C99.0754 67.1137 99.4749 66.1798 99.4749 65.1123C99.4749 64.0449 99.2085 63.2444 98.5427 62.4438C97.8769 61.6432 96.8116 60.7092 95.2136 59.6418C94.5477 59.2415 94.1482 58.8413 93.8819 58.5744C93.6156 58.3076 93.2161 58.0407 92.6834 57.6404C92.1507 57.2401 91.8844 56.9733 91.6181 56.7064C91.3518 56.4396 91.0854 56.1727 90.8191 55.9059C90.5528 55.5056 90.2864 55.2387 90.1533 54.9719C90.0201 54.705 89.8869 54.3047 89.7538 54.0379C89.7538 53.6376 89.6206 53.3708 89.6206 52.9705C89.6206 52.1699 89.7538 51.5028 90.1533 50.8356C90.5528 50.1685 90.9523 49.7682 91.6181 49.368C92.2839 48.9677 92.8166 48.7008 93.6156 48.5674C94.4146 48.434 95.0804 48.3005 95.8794 48.3005C96.6784 48.3005 97.211 48.3005 98.01 48.5674C98.6759 48.7008 99.2085 48.8342 99.608 48.9677L100.141 49.2345V50.5688C100.141 50.5688 100.141 50.5688 99.8744 50.4354C99.608 50.3019 99.608 50.3019 99.3417 50.1685C99.0754 50.0351 98.6759 49.9017 98.4095 49.7682C98.1432 49.7682 97.7437 49.5014 97.2111 49.368C96.6784 49.368 96.2789 49.2345 95.8794 49.2345C94.8141 49.2345 93.8819 49.5014 93.0829 50.0351C92.2839 50.5688 92.0176 51.2359 92.0176 52.1699C92.0176 53.1039 92.0176 52.8371 92.2839 53.2373C92.5502 53.6376 92.5502 53.9045 92.8166 54.0379C92.9497 54.3047 93.3492 54.5716 93.7487 54.9719C94.1482 55.3722 94.5477 55.639 94.8141 55.7724C95.0804 55.9059 95.6131 56.3062 96.2789 56.8399C96.8116 57.2401 97.211 57.507 97.4774 57.6404C97.7437 57.9073 98.1432 58.1741 98.6759 58.441C99.2085 58.7078 99.4749 59.1081 99.7412 59.2416C100.008 59.5084 100.274 59.7753 100.54 60.0421C100.807 60.309 101.073 60.7092 101.339 60.9761C101.472 61.243 101.739 61.6432 101.872 61.9101C102.005 62.3104 102.138 62.5772 102.271 62.9775C102.271 63.3778 102.271 63.7781 102.271 64.1783C102.271 64.9789 102.138 65.646 101.872 66.3132C101.606 66.9803 101.206 67.514 100.673 67.9143C100.141 68.3146 99.608 68.7149 99.0754 68.9817C98.4095 69.2486 97.8769 69.5154 97.2111 69.5154C96.5452 69.5154 96.0126 69.6489 95.3467 69.6489C94.6809 69.6489 94.0151 69.6488 93.3492 69.5154C92.6834 69.382 92.1508 69.2486 91.7513 68.9817C91.3518 68.7149 90.9523 68.5814 90.5528 68.448C90.1533 68.3146 89.8869 68.0477 89.7538 67.9143H89.4874C89.4874 67.7809 89.4874 67.7809 89.4874 67.7809L89.0879 67.9143Z" fill="black"/>
<path d="M104.269 69.5154L112.925 48.0337L121.58 69.5154H118.651L116.121 63.2444H107.731L105.201 69.5154H104.402H104.269ZM107.997 62.4438H115.721L111.859 52.8371L107.997 62.4438Z" fill="black"/>
<path d="M124.51 69.5155V48.7009H136.362V49.5015H127.307V58.4411H134.897V59.2417H127.307V69.5155H124.51Z" fill="black"/>
<path d="M138.492 69.5154L147.148 48.0337L155.804 69.5154H152.874L150.344 63.2444H141.955L139.425 69.5154H138.626H138.492ZM142.088 62.4438H149.812L145.95 52.8371L142.088 62.4438Z" fill="black"/>
<path d="M109.462 92.0647H50.3367V92.7318H109.462V92.0647Z" fill="black"/>
</svg>
