<svg width="14" height="19" viewBox="0 0 14 19" fill="none" xmlns="http://www.w3.org/2000/svg">
<path d="M6.62448 7.78716C7.14581 8.19468 5.89715 7.76328 6.55885 7.76328C6.58275 7.76328 6.6046 7.77162 6.62448 7.78716ZM7.1556 12.12C6.90674 11.8237 6.35594 11.8193 6.20665 12.1763C6.18159 12.2363 6.15616 12.2963 6.13038 12.3562C5.94938 12.7772 6.36829 13.229 6.79807 13.0699C6.82339 13.0606 6.84882 13.0513 6.87436 13.0421C7.23869 12.9107 7.40469 12.4166 7.1556 12.12ZM3.15408 15.8475C3.14313 15.8745 3.11735 15.8695 3.13978 15.8881C3.36562 16.0755 3.26436 15.5755 3.15408 15.8475ZM9.04167 5.9375C11.7801 5.9375 14 8.15742 14 10.8958V18.1094C14 18.6029 13.6099 19 13.125 19H0.875C0.390104 19 0 18.6029 0 18.1094V0.890625C0 0.39707 0.390104 0 0.875 0H3.16667C5.92809 0 8.16667 2.28545 8.16667 5.04688C8.16667 5.53672 8.56042 5.9375 9.04167 5.9375ZM10.1404 12.2218C9.23881 12.1994 8.30013 12.1369 7.76622 11.4101C7.30787 10.7861 7.32212 9.92003 7.43558 9.15421C7.50109 8.71204 7.52089 8.27111 7.41927 7.93398C7.24792 6.84297 5.87344 6.95059 5.67656 7.68164C5.56138 8.11073 5.58593 8.65093 5.69779 9.2985C5.83822 10.1115 5.80613 10.9529 5.46905 11.7059C5.13493 12.4523 4.77311 13.2074 4.48724 13.7179C4.48544 13.7212 4.48253 13.7238 4.47955 13.726C4.47822 13.7269 4.47638 13.7271 4.47492 13.7279C3.48659 14.2442 1.79426 15.3788 2.4901 16.2502C2.69427 16.5063 3.07344 16.6213 3.27396 16.6213C3.70778 16.6213 4.13999 16.3261 4.65306 15.6507C5.26552 14.8445 6.05456 14.1212 7.01971 13.8153C7.90685 13.5341 8.81186 13.7597 9.70522 14.0204C10.0788 14.1295 10.4301 14.1906 10.7151 14.1906C11.7797 14.1906 11.8526 13.0031 11.4333 12.5801C11.1759 12.3237 10.669 12.2349 10.1404 12.2218ZM13.7448 3.89648L10.1719 0.259766C10.0078 0.0927734 9.78542 0 9.55208 0C9.43127 0 9.33333 0.0979377 9.33333 0.21875V2.41667C9.33333 3.70533 10.378 4.75 11.6667 4.75H13.7736C13.8987 4.75 14 4.64865 14 4.52363C14 4.28984 13.9089 4.06348 13.7448 3.89648ZM11.0424 13.3714C11.0686 13.3442 11.0666 13.3628 11.0782 13.3269C11.0889 13.2937 11.0748 13.2523 11.0262 13.2107C10.7183 12.9471 10.7617 13.6637 11.0424 13.3714Z" fill="#7FD1AE"/>
</svg>
