<svg width="13" height="14" viewBox="0 0 13 14" fill="none" xmlns="http://www.w3.org/2000/svg">
<path d="M6.96649 3.3016L8.7303 1.48047L11.8148 4.66809L10.0516 6.48922L6.96649 3.3016ZM6.96649 3.3016L0.979489 9.48816C0.862598 9.6089 0.79691 9.77266 0.796875 9.94344V12.8645H3.62397C3.78925 12.8644 3.94775 12.7966 4.06461 12.6758L10.0516 6.48922L6.96649 3.3016ZM6.96649 3.3016L10.0516 6.48922L6.96649 3.3016Z" fill="#1A3C34"/>
<path d="M6.96649 3.3016L10.0516 6.48922M6.96649 3.3016L8.7303 1.48047L11.8148 4.66809L10.0516 6.48922L6.96649 3.3016ZM6.96649 3.3016L0.979489 9.48816C0.862598 9.6089 0.79691 9.77266 0.796875 9.94344V12.8645H3.62397C3.78925 12.8644 3.94775 12.7966 4.06461 12.6758L10.0516 6.48922L6.96649 3.3016Z" stroke="white" stroke-opacity="0.85" stroke-linecap="round" stroke-linejoin="round"/>
</svg>
